<svg width="15" height="15" viewBox="0 0 15 15" fill="none" xmlns="http://www.w3.org/2000/svg">
<rect width="15" height="15" fill="#E5E5E5"/>
<g clip-path="url(#clip0_0_1)">
<rect width="1280" height="3315" transform="translate(-893 -665)" fill="#F2F2F2"/>
<g filter="url(#filter0_d_0_1)">
<rect x="-853" y="-665" width="1200" height="3315" fill="white"/>
</g>
<rect x="-853" y="-115" width="1200" height="282" fill="white"/>
<path d="M-546.531 -25.87C-547.171 -25.41 -547.991 -25.08 -548.991 -24.88C-549.971 -24.68 -550.981 -24.58 -552.021 -24.58C-553.281 -24.58 -554.481 -24.77 -555.621 -25.15C-556.741 -25.55 -557.731 -26.18 -558.591 -27.04C-559.451 -27.92 -560.141 -29.05 -560.661 -30.43C-561.161 -31.83 -561.411 -33.52 -561.411 -35.5C-561.411 -37.56 -561.131 -39.28 -560.571 -40.66C-559.991 -42.06 -559.251 -43.18 -558.351 -44.02C-557.431 -44.88 -556.411 -45.49 -555.291 -45.85C-554.171 -46.23 -553.051 -46.42 -551.931 -46.42C-550.731 -46.42 -549.721 -46.34 -548.901 -46.18C-548.061 -46.02 -547.371 -45.83 -546.831 -45.61L-547.641 -42.13C-548.101 -42.35 -548.651 -42.51 -549.291 -42.61C-549.911 -42.71 -550.671 -42.76 -551.571 -42.76C-553.231 -42.76 -554.571 -42.17 -555.591 -40.99C-556.591 -39.81 -557.091 -37.98 -557.091 -35.5C-557.091 -34.42 -556.971 -33.43 -556.731 -32.53C-556.491 -31.65 -556.131 -30.89 -555.651 -30.25C-555.151 -29.63 -554.541 -29.14 -553.821 -28.78C-553.081 -28.44 -552.231 -28.27 -551.271 -28.27C-550.371 -28.27 -549.611 -28.36 -548.991 -28.54C-548.371 -28.72 -547.831 -28.95 -547.371 -29.23L-546.531 -25.87ZM-543.993 -46H-531.543V-42.34H-539.883V-37.45H-532.293V-33.79H-539.883V-28.66H-531.393V-25H-543.993V-46ZM-509.899 -21.25H-512.809L-513.259 -25H-526.759L-527.209 -21.25H-530.119V-28.66H-527.899C-527.759 -28.88 -527.529 -29.37 -527.209 -30.13C-526.889 -30.89 -526.569 -31.96 -526.249 -33.34C-525.929 -34.74 -525.659 -36.48 -525.439 -38.56C-525.219 -40.66 -525.119 -43.14 -525.139 -46H-512.569V-28.66H-509.899V-21.25ZM-516.679 -28.66V-42.34H-521.329C-521.449 -38.78 -521.739 -35.86 -522.199 -33.58C-522.639 -31.32 -523.089 -29.68 -523.549 -28.66H-516.679ZM-508.881 -35.5C-508.881 -39 -508.111 -41.69 -506.571 -43.57C-505.031 -45.47 -502.831 -46.42 -499.971 -46.42C-498.471 -46.42 -497.161 -46.16 -496.041 -45.64C-494.921 -45.12 -493.991 -44.38 -493.251 -43.42C-492.511 -42.46 -491.961 -41.31 -491.601 -39.97C-491.241 -38.63 -491.061 -37.14 -491.061 -35.5C-491.061 -32 -491.841 -29.3 -493.401 -27.4C-494.941 -25.52 -497.131 -24.58 -499.971 -24.58C-501.491 -24.58 -502.811 -24.84 -503.931 -25.36C-505.051 -25.88 -505.981 -26.62 -506.721 -27.58C-507.441 -28.54 -507.981 -29.69 -508.341 -31.03C-508.701 -32.37 -508.881 -33.86 -508.881 -35.5ZM-504.561 -35.5C-504.561 -34.44 -504.471 -33.46 -504.291 -32.56C-504.111 -31.68 -503.841 -30.92 -503.481 -30.28C-503.101 -29.64 -502.621 -29.14 -502.041 -28.78C-501.461 -28.42 -500.771 -28.24 -499.971 -28.24C-498.511 -28.24 -497.381 -28.81 -496.581 -29.95C-495.781 -31.09 -495.381 -32.94 -495.381 -35.5C-495.381 -36.52 -495.471 -37.47 -495.651 -38.35C-495.811 -39.23 -496.071 -40 -496.431 -40.66C-496.791 -41.32 -497.261 -41.83 -497.841 -42.19C-498.421 -42.57 -499.131 -42.76 -499.971 -42.76C-501.431 -42.76 -502.561 -42.17 -503.361 -40.99C-504.161 -39.83 -504.561 -38 -504.561 -35.5ZM-476.334 -33.79H-484.014V-25H-488.124V-46H-484.014V-37.45H-476.334V-46H-472.224V-25H-476.334V-33.79ZM-458.233 -29.65H-464.683L-466.273 -25H-470.383L-462.823 -46.15H-459.793L-452.233 -25H-456.553L-458.233 -29.65ZM-463.633 -32.95H-459.133L-460.693 -37.63L-461.323 -40.93H-461.473L-462.103 -37.6L-463.633 -32.95ZM-443.998 -35.38H-425.938V-31.9H-443.998V-35.38ZM-403.883 -33.79H-411.563V-25H-415.673V-46H-411.563V-37.45H-403.883V-46H-399.773V-25H-403.883V-33.79ZM-396.132 -46H-383.682V-42.34H-392.022V-37.45H-384.432V-33.79H-392.022V-28.66H-383.532V-25H-396.132V-46ZM-380.458 -46H-367.528V-42.34H-376.348V-37.96C-376.008 -38.02 -375.598 -38.08 -375.118 -38.14C-374.618 -38.2 -374.128 -38.23 -373.648 -38.23C-372.528 -38.23 -371.498 -38.12 -370.558 -37.9C-369.618 -37.68 -368.818 -37.31 -368.158 -36.79C-367.478 -36.29 -366.948 -35.62 -366.568 -34.78C-366.188 -33.96 -365.998 -32.95 -365.998 -31.75C-365.998 -30.57 -366.198 -29.54 -366.598 -28.66C-366.978 -27.78 -367.538 -27.05 -368.278 -26.47C-368.998 -25.89 -369.878 -25.45 -370.918 -25.15C-371.938 -24.85 -373.088 -24.7 -374.368 -24.7C-374.708 -24.7 -375.138 -24.71 -375.658 -24.73C-376.158 -24.75 -376.698 -24.78 -377.278 -24.82C-377.838 -24.86 -378.398 -24.91 -378.958 -24.97C-379.518 -25.03 -380.018 -25.11 -380.458 -25.21V-46ZM-374.068 -28.09C-373.548 -28.09 -373.068 -28.15 -372.628 -28.27C-372.168 -28.41 -371.768 -28.61 -371.428 -28.87C-371.088 -29.15 -370.818 -29.5 -370.618 -29.92C-370.418 -30.34 -370.318 -30.85 -370.318 -31.45C-370.318 -32.17 -370.428 -32.75 -370.648 -33.19C-370.868 -33.63 -371.168 -33.97 -371.548 -34.21C-371.928 -34.47 -372.368 -34.64 -372.868 -34.72C-373.348 -34.8 -373.868 -34.84 -374.428 -34.84C-374.708 -34.84 -375.058 -34.81 -375.478 -34.75C-375.898 -34.71 -376.188 -34.67 -376.348 -34.63V-28.24C-376.128 -28.18 -375.798 -28.14 -375.358 -28.12C-374.898 -28.1 -374.468 -28.09 -374.068 -28.09ZM-364.008 -35.5C-364.008 -39 -363.238 -41.69 -361.698 -43.57C-360.158 -45.47 -357.958 -46.42 -355.098 -46.42C-353.598 -46.42 -352.288 -46.16 -351.168 -45.64C-350.048 -45.12 -349.118 -44.38 -348.378 -43.42C-347.638 -42.46 -347.088 -41.31 -346.728 -39.97C-346.368 -38.63 -346.188 -37.14 -346.188 -35.5C-346.188 -32 -346.968 -29.3 -348.528 -27.4C-350.068 -25.52 -352.258 -24.58 -355.098 -24.58C-356.618 -24.58 -357.938 -24.84 -359.058 -25.36C-360.178 -25.88 -361.108 -26.62 -361.848 -27.58C-362.568 -28.54 -363.108 -29.69 -363.468 -31.03C-363.828 -32.37 -364.008 -33.86 -364.008 -35.5ZM-359.688 -35.5C-359.688 -34.44 -359.598 -33.46 -359.418 -32.56C-359.238 -31.68 -358.968 -30.92 -358.608 -30.28C-358.228 -29.64 -357.748 -29.14 -357.168 -28.78C-356.588 -28.42 -355.898 -28.24 -355.098 -28.24C-353.638 -28.24 -352.508 -28.81 -351.708 -29.95C-350.908 -31.09 -350.508 -32.94 -350.508 -35.5C-350.508 -36.52 -350.598 -37.47 -350.778 -38.35C-350.938 -39.23 -351.198 -40 -351.558 -40.66C-351.918 -41.32 -352.388 -41.83 -352.968 -42.19C-353.548 -42.57 -354.258 -42.76 -355.098 -42.76C-356.558 -42.76 -357.688 -42.17 -358.488 -40.99C-359.288 -39.83 -359.688 -38 -359.688 -35.5ZM-332.769 -42.34H-337.239C-337.319 -40.44 -337.409 -38.71 -337.509 -37.15C-337.609 -35.59 -337.749 -34.18 -337.929 -32.92C-338.089 -31.68 -338.309 -30.58 -338.589 -29.62C-338.869 -28.66 -339.229 -27.83 -339.669 -27.13C-339.949 -26.67 -340.269 -26.29 -340.629 -25.99C-340.969 -25.69 -341.329 -25.45 -341.709 -25.27C-342.089 -25.09 -342.469 -24.97 -342.849 -24.91C-343.209 -24.83 -343.549 -24.79 -343.869 -24.79C-344.329 -24.79 -344.719 -24.83 -345.039 -24.91C-345.339 -24.97 -345.639 -25.07 -345.939 -25.21L-345.489 -28.75C-345.369 -28.71 -345.249 -28.68 -345.129 -28.66C-345.009 -28.64 -344.889 -28.63 -344.769 -28.63C-344.449 -28.63 -344.139 -28.71 -343.839 -28.87C-343.519 -29.03 -343.249 -29.3 -343.029 -29.68C-342.729 -30.12 -342.469 -30.76 -342.249 -31.6C-342.029 -32.46 -341.839 -33.55 -341.679 -34.87C-341.499 -36.19 -341.359 -37.76 -341.259 -39.58C-341.159 -41.42 -341.089 -43.56 -341.049 -46H-328.659V-25H-332.769V-42.34ZM-325.057 -46H-320.947V-38.47C-320.847 -38.49 -320.687 -38.51 -320.467 -38.53C-320.227 -38.57 -319.977 -38.6 -319.717 -38.62C-319.437 -38.64 -319.157 -38.66 -318.877 -38.68C-318.597 -38.7 -318.337 -38.71 -318.097 -38.71C-317.117 -38.71 -316.167 -38.61 -315.247 -38.41C-314.327 -38.21 -313.517 -37.85 -312.817 -37.33C-312.097 -36.83 -311.527 -36.14 -311.107 -35.26C-310.687 -34.4 -310.477 -33.3 -310.477 -31.96C-310.477 -29.56 -311.227 -27.75 -312.727 -26.53C-314.207 -25.31 -316.337 -24.7 -319.117 -24.7C-319.397 -24.7 -319.777 -24.71 -320.257 -24.73C-320.717 -24.73 -321.227 -24.75 -321.787 -24.79C-322.347 -24.83 -322.917 -24.88 -323.497 -24.94C-324.057 -25 -324.577 -25.09 -325.057 -25.21V-46ZM-318.907 -28.36C-318.347 -28.36 -317.817 -28.41 -317.317 -28.51C-316.817 -28.63 -316.377 -28.82 -315.997 -29.08C-315.617 -29.36 -315.327 -29.72 -315.127 -30.16C-314.907 -30.6 -314.797 -31.14 -314.797 -31.78C-314.797 -32.46 -314.917 -33.01 -315.157 -33.43C-315.377 -33.87 -315.677 -34.21 -316.057 -34.45C-316.417 -34.69 -316.847 -34.85 -317.347 -34.93C-317.847 -35.01 -318.367 -35.05 -318.907 -35.05C-319.047 -35.05 -319.217 -35.04 -319.417 -35.02C-319.617 -35 -319.817 -34.98 -320.017 -34.96C-320.217 -34.94 -320.407 -34.91 -320.587 -34.87C-320.747 -34.85 -320.867 -34.83 -320.947 -34.81V-28.54C-320.727 -28.48 -320.437 -28.43 -320.077 -28.39C-319.697 -28.37 -319.307 -28.36 -318.907 -28.36ZM-307.977 -25V-46H-303.867V-28.66H-298.917V-46H-294.807V-28.66H-289.857V-46H-285.747V-25H-307.977ZM-282.797 -35.5C-282.797 -39 -282.027 -41.69 -280.487 -43.57C-278.947 -45.47 -276.747 -46.42 -273.887 -46.42C-272.387 -46.42 -271.077 -46.16 -269.957 -45.64C-268.837 -45.12 -267.907 -44.38 -267.167 -43.42C-266.427 -42.46 -265.877 -41.31 -265.517 -39.97C-265.157 -38.63 -264.977 -37.14 -264.977 -35.5C-264.977 -32 -265.757 -29.3 -267.317 -27.4C-268.857 -25.52 -271.047 -24.58 -273.887 -24.58C-275.407 -24.58 -276.727 -24.84 -277.847 -25.36C-278.967 -25.88 -279.897 -26.62 -280.637 -27.58C-281.357 -28.54 -281.897 -29.69 -282.257 -31.03C-282.617 -32.37 -282.797 -33.86 -282.797 -35.5ZM-278.477 -35.5C-278.477 -34.44 -278.387 -33.46 -278.207 -32.56C-278.027 -31.68 -277.757 -30.92 -277.397 -30.28C-277.017 -29.64 -276.537 -29.14 -275.957 -28.78C-275.377 -28.42 -274.687 -28.24 -273.887 -28.24C-272.427 -28.24 -271.297 -28.81 -270.497 -29.95C-269.697 -31.09 -269.297 -32.94 -269.297 -35.5C-269.297 -36.52 -269.387 -37.47 -269.567 -38.35C-269.727 -39.23 -269.987 -40 -270.347 -40.66C-270.707 -41.32 -271.177 -41.83 -271.757 -42.19C-272.337 -42.57 -273.047 -42.76 -273.887 -42.76C-275.347 -42.76 -276.477 -42.17 -277.277 -40.99C-278.077 -39.83 -278.477 -38 -278.477 -35.5ZM-249.8 -36.64L-249.56 -39.37H-249.71L-251.12 -36.55L-258.95 -25H-262.04V-46H-257.93V-34.57L-258.23 -31.75H-258.05L-256.58 -34.66L-248.75 -46H-245.69V-25H-249.8V-36.64ZM-255.65 -51.22C-255.57 -50.58 -255.34 -50.12 -254.96 -49.84C-254.56 -49.56 -254.05 -49.42 -253.43 -49.42C-252.09 -49.42 -251.35 -50.01 -251.21 -51.19L-247.88 -50.68C-248.1 -49.42 -248.68 -48.5 -249.62 -47.92C-250.54 -47.34 -251.82 -47.05 -253.46 -47.05C-254.28 -47.05 -255.03 -47.11 -255.71 -47.23C-256.39 -47.35 -256.99 -47.54 -257.51 -47.8C-258.01 -48.08 -258.43 -48.45 -258.77 -48.91C-259.09 -49.37 -259.29 -49.94 -259.37 -50.62L-255.65 -51.22ZM-222.261 -42.34H-230.361V-25H-234.471V-46H-222.261V-42.34ZM-222.036 -35.5C-222.036 -39 -221.266 -41.69 -219.726 -43.57C-218.186 -45.47 -215.986 -46.42 -213.126 -46.42C-211.626 -46.42 -210.316 -46.16 -209.196 -45.64C-208.076 -45.12 -207.146 -44.38 -206.406 -43.42C-205.666 -42.46 -205.116 -41.31 -204.756 -39.97C-204.396 -38.63 -204.216 -37.14 -204.216 -35.5C-204.216 -32 -204.996 -29.3 -206.556 -27.4C-208.096 -25.52 -210.286 -24.58 -213.126 -24.58C-214.646 -24.58 -215.966 -24.84 -217.086 -25.36C-218.206 -25.88 -219.136 -26.62 -219.876 -27.58C-220.596 -28.54 -221.136 -29.69 -221.496 -31.03C-221.856 -32.37 -222.036 -33.86 -222.036 -35.5ZM-217.716 -35.5C-217.716 -34.44 -217.626 -33.46 -217.446 -32.56C-217.266 -31.68 -216.996 -30.92 -216.636 -30.28C-216.256 -29.64 -215.776 -29.14 -215.196 -28.78C-214.616 -28.42 -213.926 -28.24 -213.126 -28.24C-211.666 -28.24 -210.536 -28.81 -209.736 -29.95C-208.936 -31.09 -208.536 -32.94 -208.536 -35.5C-208.536 -36.52 -208.626 -37.47 -208.806 -38.35C-208.966 -39.23 -209.226 -40 -209.586 -40.66C-209.946 -41.32 -210.416 -41.83 -210.996 -42.19C-211.576 -42.57 -212.286 -42.76 -213.126 -42.76C-214.586 -42.76 -215.716 -42.17 -216.516 -40.99C-217.316 -39.83 -217.716 -38 -217.716 -35.5ZM-201.278 -45.79C-200.438 -45.95 -199.518 -46.07 -198.518 -46.15C-197.498 -46.25 -196.488 -46.3 -195.488 -46.3C-194.448 -46.3 -193.408 -46.21 -192.368 -46.03C-191.308 -45.87 -190.358 -45.53 -189.518 -45.01C-188.678 -44.51 -187.998 -43.8 -187.478 -42.88C-186.938 -41.98 -186.668 -40.8 -186.668 -39.34C-186.668 -38.02 -186.898 -36.9 -187.358 -35.98C-187.818 -35.08 -188.428 -34.34 -189.188 -33.76C-189.948 -33.18 -190.818 -32.76 -191.798 -32.5C-192.758 -32.24 -193.758 -32.11 -194.798 -32.11C-194.898 -32.11 -195.058 -32.11 -195.278 -32.11C-195.498 -32.11 -195.728 -32.11 -195.968 -32.11C-196.208 -32.13 -196.448 -32.15 -196.688 -32.17C-196.908 -32.19 -197.068 -32.21 -197.168 -32.23V-25H-201.278V-45.79ZM-195.158 -42.76C-195.558 -42.76 -195.938 -42.74 -196.298 -42.7C-196.658 -42.68 -196.948 -42.65 -197.168 -42.61V-35.8C-197.088 -35.78 -196.968 -35.76 -196.808 -35.74C-196.648 -35.72 -196.478 -35.7 -196.298 -35.68C-196.118 -35.68 -195.948 -35.68 -195.788 -35.68C-195.608 -35.68 -195.478 -35.68 -195.398 -35.68C-194.858 -35.68 -194.328 -35.73 -193.808 -35.83C-193.268 -35.93 -192.788 -36.11 -192.368 -36.37C-191.948 -36.65 -191.618 -37.03 -191.378 -37.51C-191.118 -37.99 -190.988 -38.62 -190.988 -39.4C-190.988 -40.06 -191.108 -40.6 -191.348 -41.02C-191.588 -41.46 -191.908 -41.81 -192.308 -42.07C-192.688 -42.33 -193.128 -42.51 -193.628 -42.61C-194.128 -42.71 -194.638 -42.76 -195.158 -42.76ZM-185.092 -35.5C-185.092 -39 -184.322 -41.69 -182.782 -43.57C-181.242 -45.47 -179.042 -46.42 -176.182 -46.42C-174.682 -46.42 -173.372 -46.16 -172.252 -45.64C-171.132 -45.12 -170.202 -44.38 -169.462 -43.42C-168.722 -42.46 -168.172 -41.31 -167.812 -39.97C-167.452 -38.63 -167.272 -37.14 -167.272 -35.5C-167.272 -32 -168.052 -29.3 -169.612 -27.4C-171.152 -25.52 -173.342 -24.58 -176.182 -24.58C-177.702 -24.58 -179.022 -24.84 -180.142 -25.36C-181.262 -25.88 -182.192 -26.62 -182.932 -27.58C-183.652 -28.54 -184.192 -29.69 -184.552 -31.03C-184.912 -32.37 -185.092 -33.86 -185.092 -35.5ZM-180.772 -35.5C-180.772 -34.44 -180.682 -33.46 -180.502 -32.56C-180.322 -31.68 -180.052 -30.92 -179.692 -30.28C-179.312 -29.64 -178.832 -29.14 -178.252 -28.78C-177.672 -28.42 -176.982 -28.24 -176.182 -28.24C-174.722 -28.24 -173.592 -28.81 -172.792 -29.95C-171.992 -31.09 -171.592 -32.94 -171.592 -35.5C-171.592 -36.52 -171.682 -37.47 -171.862 -38.35C-172.022 -39.23 -172.282 -40 -172.642 -40.66C-173.002 -41.32 -173.472 -41.83 -174.052 -42.19C-174.632 -42.57 -175.342 -42.76 -176.182 -42.76C-177.642 -42.76 -178.772 -42.17 -179.572 -40.99C-180.372 -39.83 -180.772 -38 -180.772 -35.5ZM-146.471 -21.25H-149.381L-149.831 -25H-163.331L-163.781 -21.25H-166.691V-28.66H-164.471C-164.331 -28.88 -164.101 -29.37 -163.781 -30.13C-163.461 -30.89 -163.141 -31.96 -162.821 -33.34C-162.501 -34.74 -162.231 -36.48 -162.011 -38.56C-161.791 -40.66 -161.691 -43.14 -161.711 -46H-149.141V-28.66H-146.471V-21.25ZM-153.251 -28.66V-42.34H-157.901C-158.021 -38.78 -158.311 -35.86 -158.771 -33.58C-159.211 -31.32 -159.661 -29.68 -160.121 -28.66H-153.251ZM-145.454 -35.5C-145.454 -39 -144.684 -41.69 -143.144 -43.57C-141.604 -45.47 -139.404 -46.42 -136.544 -46.42C-135.044 -46.42 -133.734 -46.16 -132.614 -45.64C-131.494 -45.12 -130.564 -44.38 -129.824 -43.42C-129.084 -42.46 -128.534 -41.31 -128.174 -39.97C-127.814 -38.63 -127.634 -37.14 -127.634 -35.5C-127.634 -32 -128.414 -29.3 -129.974 -27.4C-131.514 -25.52 -133.704 -24.58 -136.544 -24.58C-138.064 -24.58 -139.384 -24.84 -140.504 -25.36C-141.624 -25.88 -142.554 -26.62 -143.294 -27.58C-144.014 -28.54 -144.554 -29.69 -144.914 -31.03C-145.274 -32.37 -145.454 -33.86 -145.454 -35.5ZM-141.134 -35.5C-141.134 -34.44 -141.044 -33.46 -140.864 -32.56C-140.684 -31.68 -140.414 -30.92 -140.054 -30.28C-139.674 -29.64 -139.194 -29.14 -138.614 -28.78C-138.034 -28.42 -137.344 -28.24 -136.544 -28.24C-135.084 -28.24 -133.954 -28.81 -133.154 -29.95C-132.354 -31.09 -131.954 -32.94 -131.954 -35.5C-131.954 -36.52 -132.044 -37.47 -132.224 -38.35C-132.384 -39.23 -132.644 -40 -133.004 -40.66C-133.364 -41.32 -133.834 -41.83 -134.414 -42.19C-134.994 -42.57 -135.704 -42.76 -136.544 -42.76C-138.004 -42.76 -139.134 -42.17 -139.934 -40.99C-140.734 -39.83 -141.134 -38 -141.134 -35.5ZM-119.506 -33.97H-120.586V-25H-124.696V-46H-120.586V-36.7L-119.626 -37.12L-113.836 -46H-109.156L-115.276 -37.18L-116.896 -36.04L-115.216 -34.87L-108.226 -25H-113.296L-119.506 -33.97ZM-84.8727 -41.11C-84.8727 -40.59 -84.9427 -40.07 -85.0827 -39.55C-85.2027 -39.03 -85.4127 -38.55 -85.7127 -38.11C-86.0127 -37.69 -86.4027 -37.31 -86.8827 -36.97C-87.3627 -36.65 -87.9427 -36.41 -88.6227 -36.25V-36.07C-88.0227 -35.97 -87.4527 -35.8 -86.9127 -35.56C-86.3727 -35.32 -85.9027 -34.99 -85.5027 -34.57C-85.1027 -34.15 -84.7927 -33.64 -84.5727 -33.04C-84.3327 -32.44 -84.2127 -31.73 -84.2127 -30.91C-84.2127 -29.83 -84.4427 -28.89 -84.9027 -28.09C-85.3627 -27.31 -85.9827 -26.67 -86.7627 -26.17C-87.5227 -25.67 -88.3927 -25.3 -89.3727 -25.06C-90.3527 -24.82 -91.3627 -24.7 -92.4027 -24.7C-92.7427 -24.7 -93.1827 -24.7 -93.7227 -24.7C-94.2427 -24.7 -94.8127 -24.72 -95.4327 -24.76C-96.0327 -24.78 -96.6527 -24.82 -97.2927 -24.88C-97.9127 -24.94 -98.4827 -25.03 -99.0027 -25.15V-45.85C-98.6227 -45.91 -98.1927 -45.97 -97.7127 -46.03C-97.2127 -46.09 -96.6827 -46.14 -96.1227 -46.18C-95.5627 -46.22 -94.9927 -46.25 -94.4127 -46.27C-93.8127 -46.29 -93.2227 -46.3 -92.6427 -46.3C-91.6627 -46.3 -90.7127 -46.22 -89.7927 -46.06C-88.8527 -45.92 -88.0227 -45.66 -87.3027 -45.28C-86.5627 -44.9 -85.9727 -44.37 -85.5327 -43.69C-85.0927 -43.01 -84.8727 -42.15 -84.8727 -41.11ZM-92.3727 -28.09C-91.8727 -28.09 -91.3927 -28.15 -90.9327 -28.27C-90.4527 -28.39 -90.0327 -28.57 -89.6727 -28.81C-89.3127 -29.07 -89.0227 -29.39 -88.8027 -29.77C-88.5827 -30.15 -88.4727 -30.6 -88.4727 -31.12C-88.4727 -31.78 -88.6027 -32.3 -88.8627 -32.68C-89.1227 -33.06 -89.4627 -33.35 -89.8827 -33.55C-90.3027 -33.77 -90.7727 -33.91 -91.2927 -33.97C-91.8127 -34.03 -92.3327 -34.06 -92.8527 -34.06H-95.0427V-28.27C-94.9427 -28.23 -94.7827 -28.2 -94.5627 -28.18C-94.3427 -28.16 -94.1127 -28.14 -93.8727 -28.12C-93.6127 -28.12 -93.3527 -28.11 -93.0927 -28.09C-92.8127 -28.09 -92.5727 -28.09 -92.3727 -28.09ZM-93.7227 -37.18C-93.4427 -37.18 -93.1227 -37.19 -92.7627 -37.21C-92.3827 -37.23 -92.0727 -37.26 -91.8327 -37.3C-91.0727 -37.54 -90.4227 -37.9 -89.8827 -38.38C-89.3227 -38.86 -89.0427 -39.49 -89.0427 -40.27C-89.0427 -40.79 -89.1427 -41.22 -89.3427 -41.56C-89.5427 -41.9 -89.8127 -42.17 -90.1527 -42.37C-90.4727 -42.57 -90.8427 -42.71 -91.2627 -42.79C-91.6827 -42.87 -92.1227 -42.91 -92.5827 -42.91C-93.1027 -42.91 -93.5827 -42.9 -94.0227 -42.88C-94.4627 -42.86 -94.8027 -42.83 -95.0427 -42.79V-37.18H-93.7227ZM-64.5414 -29.65H-70.9914L-72.5814 -25H-76.6914L-69.1314 -46.15H-66.1014L-58.5414 -25H-62.8614L-64.5414 -29.65ZM-69.9414 -32.95H-65.4414L-67.0014 -37.63L-67.6314 -40.93H-67.7814L-68.4114 -37.6L-69.9414 -32.95ZM-56.7273 -45.79C-55.8873 -45.95 -54.9673 -46.07 -53.9673 -46.15C-52.9473 -46.25 -51.9373 -46.3 -50.9373 -46.3C-49.8973 -46.3 -48.8573 -46.21 -47.8173 -46.03C-46.7573 -45.87 -45.8073 -45.53 -44.9673 -45.01C-44.1273 -44.51 -43.4473 -43.8 -42.9273 -42.88C-42.3873 -41.98 -42.1173 -40.8 -42.1173 -39.34C-42.1173 -38.02 -42.3473 -36.9 -42.8073 -35.98C-43.2673 -35.08 -43.8773 -34.34 -44.6373 -33.76C-45.3973 -33.18 -46.2673 -32.76 -47.2473 -32.5C-48.2073 -32.24 -49.2073 -32.11 -50.2473 -32.11C-50.3473 -32.11 -50.5073 -32.11 -50.7273 -32.11C-50.9473 -32.11 -51.1773 -32.11 -51.4173 -32.11C-51.6573 -32.13 -51.8973 -32.15 -52.1373 -32.17C-52.3573 -32.19 -52.5173 -32.21 -52.6173 -32.23V-25H-56.7273V-45.79ZM-50.6073 -42.76C-51.0073 -42.76 -51.3873 -42.74 -51.7473 -42.7C-52.1073 -42.68 -52.3973 -42.65 -52.6173 -42.61V-35.8C-52.5373 -35.78 -52.4173 -35.76 -52.2573 -35.74C-52.0973 -35.72 -51.9273 -35.7 -51.7473 -35.68C-51.5673 -35.68 -51.3973 -35.68 -51.2373 -35.68C-51.0573 -35.68 -50.9273 -35.68 -50.8473 -35.68C-50.3073 -35.68 -49.7773 -35.73 -49.2573 -35.83C-48.7173 -35.93 -48.2373 -36.11 -47.8173 -36.37C-47.3973 -36.65 -47.0673 -37.03 -46.8273 -37.51C-46.5673 -37.99 -46.4373 -38.62 -46.4373 -39.4C-46.4373 -40.06 -46.5573 -40.6 -46.7973 -41.02C-47.0373 -41.46 -47.3573 -41.81 -47.7573 -42.07C-48.1373 -42.33 -48.5773 -42.51 -49.0773 -42.61C-49.5773 -42.71 -50.0873 -42.76 -50.6073 -42.76ZM-27.3194 -36.64L-27.0794 -39.37H-27.2294L-28.6394 -36.55L-36.4694 -25H-39.5594V-46H-35.4494V-34.57L-35.7494 -31.75H-35.5694L-34.0994 -34.66L-26.2694 -46H-23.2094V-25H-27.3194V-36.64ZM-17.7789 -34.3V-37.51H-17.0589C-16.8789 -37.51 -16.6589 -37.51 -16.3989 -37.51C-16.1389 -37.51 -15.8789 -37.51 -15.6189 -37.51C-15.3389 -37.53 -15.0689 -37.55 -14.8089 -37.57C-14.5489 -37.61 -14.3389 -37.65 -14.1789 -37.69C-13.4789 -37.85 -12.8789 -38.13 -12.3789 -38.53C-11.8789 -38.95 -11.6289 -39.51 -11.6289 -40.21C-11.6289 -41.17 -11.9389 -41.82 -12.5589 -42.16C-13.1589 -42.52 -13.9589 -42.7 -14.9589 -42.7C-15.8589 -42.7 -16.6989 -42.58 -17.4789 -42.34C-18.2589 -42.1 -18.8489 -41.87 -19.2489 -41.65L-20.2989 -45.13C-20.0789 -45.25 -19.7689 -45.38 -19.3689 -45.52C-18.9489 -45.66 -18.4789 -45.79 -17.9589 -45.91C-17.4189 -46.05 -16.8389 -46.16 -16.2189 -46.24C-15.5989 -46.32 -14.9689 -46.36 -14.3289 -46.36C-13.4489 -46.36 -12.5889 -46.28 -11.7489 -46.12C-10.9089 -45.96 -10.1589 -45.68 -9.49891 -45.28C-8.83891 -44.88 -8.30891 -44.34 -7.90891 -43.66C-7.50891 -43 -7.30891 -42.15 -7.30891 -41.11C-7.30891 -40.07 -7.58891 -39.11 -8.14891 -38.23C-8.68891 -37.35 -9.56891 -36.71 -10.7889 -36.31V-36.16C-9.48891 -35.9 -8.47891 -35.34 -7.75891 -34.48C-7.01891 -33.62 -6.64891 -32.47 -6.64891 -31.03C-6.64891 -29.89 -6.87891 -28.91 -7.33891 -28.09C-7.79891 -27.29 -8.40891 -26.63 -9.16891 -26.11C-9.90891 -25.59 -10.7689 -25.21 -11.7489 -24.97C-12.7289 -24.71 -13.7289 -24.58 -14.7489 -24.58C-16.0689 -24.58 -17.2689 -24.69 -18.3489 -24.91C-19.4289 -25.13 -20.2589 -25.39 -20.8389 -25.69L-19.7889 -29.26C-19.3289 -29.04 -18.6689 -28.81 -17.8089 -28.57C-16.9489 -28.35 -15.9289 -28.24 -14.7489 -28.24C-14.3089 -28.24 -13.8689 -28.29 -13.4289 -28.39C-12.9689 -28.51 -12.5589 -28.69 -12.1989 -28.93C-11.8389 -29.19 -11.5489 -29.52 -11.3289 -29.92C-11.1089 -30.32 -10.9989 -30.8 -10.9989 -31.36C-10.9989 -32.3 -11.3489 -33.01 -12.0489 -33.49C-12.7489 -33.97 -13.9989 -34.23 -15.7989 -34.27C-16.0389 -34.29 -16.2189 -34.3 -16.3389 -34.3C-16.4589 -34.3 -16.6689 -34.3 -16.9689 -34.3H-17.7789ZM-4.44789 -35.5C-4.44789 -39 -3.67789 -41.69 -2.13789 -43.57C-0.597891 -45.47 1.60211 -46.42 4.46211 -46.42C5.96211 -46.42 7.27211 -46.16 8.39211 -45.64C9.51211 -45.12 10.4421 -44.38 11.1821 -43.42C11.9221 -42.46 12.4721 -41.31 12.8321 -39.97C13.1921 -38.63 13.3721 -37.14 13.3721 -35.5C13.3721 -32 12.5921 -29.3 11.0321 -27.4C9.49211 -25.52 7.30211 -24.58 4.46211 -24.58C2.94211 -24.58 1.62211 -24.84 0.50211 -25.36C-0.617891 -25.88 -1.54789 -26.62 -2.28789 -27.58C-3.00789 -28.54 -3.54789 -29.69 -3.90789 -31.03C-4.26789 -32.37 -4.44789 -33.86 -4.44789 -35.5ZM-0.12789 -35.5C-0.12789 -34.44 -0.0378903 -33.46 0.14211 -32.56C0.32211 -31.68 0.59211 -30.92 0.95211 -30.28C1.33211 -29.64 1.81211 -29.14 2.39211 -28.78C2.97211 -28.42 3.66211 -28.24 4.46211 -28.24C5.92211 -28.24 7.05211 -28.81 7.85211 -29.95C8.65211 -31.09 9.05211 -32.94 9.05211 -35.5C9.05211 -36.52 8.96211 -37.47 8.78211 -38.35C8.62211 -39.23 8.36211 -40 8.00211 -40.66C7.64211 -41.32 7.17211 -41.83 6.59211 -42.19C6.01211 -42.57 5.30211 -42.76 4.46211 -42.76C3.00211 -42.76 1.87211 -42.17 1.07211 -40.99C0.27211 -39.83 -0.12789 -38 -0.12789 -35.5ZM28.0998 -33.79H20.4198V-25H16.3098V-46H20.4198V-37.45H28.0998V-46H32.2098V-25H28.0998V-33.79ZM35.8508 -46H48.3008V-42.34H39.9608V-37.45H47.5508V-33.79H39.9608V-28.66H48.4508V-25H35.8508V-46ZM50.9846 -26.92C50.9846 -27.6 51.2046 -28.14 51.6446 -28.54C52.1046 -28.94 52.6646 -29.14 53.3246 -29.14C54.1646 -29.14 54.8246 -28.86 55.3046 -28.3C55.7846 -27.74 56.0246 -27 56.0246 -26.08C56.0246 -25.18 55.8846 -24.41 55.6046 -23.77C55.3246 -23.11 54.9746 -22.57 54.5546 -22.15C54.1546 -21.71 53.7146 -21.37 53.2346 -21.13C52.7746 -20.87 52.3546 -20.68 51.9746 -20.56L50.8346 -22.18C51.3746 -22.4 51.8446 -22.76 52.2446 -23.26C52.6446 -23.76 52.8646 -24.29 52.9046 -24.85C52.4446 -24.79 52.0046 -24.93 51.5846 -25.27C51.1846 -25.61 50.9846 -26.16 50.9846 -26.92ZM-461.275 1.7V-1.51H-460.555C-460.375 -1.51 -460.155 -1.51 -459.895 -1.51C-459.635 -1.51 -459.375 -1.51 -459.115 -1.51C-458.835 -1.53 -458.565 -1.55 -458.305 -1.57C-458.045 -1.61 -457.835 -1.65 -457.675 -1.69C-456.975 -1.85 -456.375 -2.13 -455.875 -2.53C-455.375 -2.95 -455.125 -3.51 -455.125 -4.21C-455.125 -5.17 -455.435 -5.82 -456.055 -6.16C-456.655 -6.52 -457.455 -6.7 -458.455 -6.7C-459.355 -6.7 -460.195 -6.58 -460.975 -6.34C-461.755 -6.1 -462.345 -5.87 -462.745 -5.65L-463.795 -9.13C-463.575 -9.25 -463.265 -9.38 -462.865 -9.52C-462.445 -9.66 -461.975 -9.79 -461.455 -9.91C-460.915 -10.05 -460.335 -10.16 -459.715 -10.24C-459.095 -10.32 -458.465 -10.36 -457.825 -10.36C-456.945 -10.36 -456.085 -10.28 -455.245 -10.12C-454.405 -9.96 -453.655 -9.68 -452.995 -9.28C-452.335 -8.88 -451.805 -8.34 -451.405 -7.66C-451.005 -7 -450.805 -6.15 -450.805 -5.11C-450.805 -4.07 -451.085 -3.11 -451.645 -2.23C-452.185 -1.35 -453.065 -0.71 -454.285 -0.31V-0.16C-452.985 0.0999994 -451.975 0.659999 -451.255 1.52C-450.515 2.38 -450.145 3.53 -450.145 4.97C-450.145 6.11 -450.375 7.09 -450.835 7.91C-451.295 8.71 -451.905 9.37 -452.665 9.89C-453.405 10.41 -454.265 10.79 -455.245 11.03C-456.225 11.29 -457.225 11.42 -458.245 11.42C-459.565 11.42 -460.765 11.31 -461.845 11.09C-462.925 10.87 -463.755 10.61 -464.335 10.31L-463.285 6.74C-462.825 6.96 -462.165 7.19 -461.305 7.43C-460.445 7.65 -459.425 7.76 -458.245 7.76C-457.805 7.76 -457.365 7.71 -456.925 7.61C-456.465 7.49 -456.055 7.31 -455.695 7.07C-455.335 6.81 -455.045 6.48 -454.825 6.08C-454.605 5.68 -454.495 5.2 -454.495 4.64C-454.495 3.7 -454.845 2.99 -455.545 2.51C-456.245 2.03 -457.495 1.77 -459.295 1.73C-459.535 1.71 -459.715 1.7 -459.835 1.7C-459.955 1.7 -460.165 1.7 -460.465 1.7H-461.275ZM-436.934 6.35H-443.384L-444.974 11H-449.084L-441.524 -10.15H-438.494L-430.934 11H-435.254L-436.934 6.35ZM-442.334 3.05H-437.834L-439.394 -1.63L-440.024 -4.93H-440.174L-440.804 -1.6L-442.334 3.05ZM-415.837 10.13C-416.477 10.59 -417.297 10.92 -418.297 11.12C-419.277 11.32 -420.287 11.42 -421.327 11.42C-422.587 11.42 -423.787 11.23 -424.927 10.85C-426.047 10.45 -427.037 9.82 -427.897 8.96C-428.757 8.08 -429.447 6.95 -429.967 5.57C-430.467 4.17 -430.717 2.48 -430.717 0.499999C-430.717 -1.56 -430.437 -3.28 -429.877 -4.66C-429.297 -6.06 -428.557 -7.18 -427.657 -8.02C-426.737 -8.88 -425.717 -9.49 -424.597 -9.85C-423.477 -10.23 -422.357 -10.42 -421.237 -10.42C-420.037 -10.42 -419.027 -10.34 -418.207 -10.18C-417.367 -10.02 -416.677 -9.83 -416.137 -9.61L-416.947 -6.13C-417.407 -6.35 -417.957 -6.51 -418.597 -6.61C-419.217 -6.71 -419.977 -6.76 -420.877 -6.76C-422.537 -6.76 -423.877 -6.17 -424.897 -4.99C-425.897 -3.81 -426.397 -1.98 -426.397 0.499999C-426.397 1.58 -426.277 2.57 -426.037 3.47C-425.797 4.35 -425.437 5.11 -424.957 5.75C-424.457 6.37 -423.847 6.86 -423.127 7.22C-422.387 7.56 -421.537 7.73 -420.577 7.73C-419.677 7.73 -418.917 7.64 -418.297 7.46C-417.677 7.28 -417.137 7.05 -416.677 6.77L-415.837 10.13ZM-402.027 -6.34H-406.497C-406.577 -4.44 -406.667 -2.71 -406.767 -1.15C-406.867 0.409999 -407.007 1.82 -407.187 3.08C-407.347 4.32 -407.567 5.42 -407.847 6.38C-408.127 7.34 -408.487 8.17 -408.927 8.87C-409.207 9.33 -409.527 9.71 -409.887 10.01C-410.227 10.31 -410.587 10.55 -410.967 10.73C-411.347 10.91 -411.727 11.03 -412.107 11.09C-412.467 11.17 -412.807 11.21 -413.127 11.21C-413.587 11.21 -413.977 11.17 -414.297 11.09C-414.597 11.03 -414.897 10.93 -415.197 10.79L-414.747 7.25C-414.627 7.29 -414.507 7.32 -414.387 7.34C-414.267 7.36 -414.147 7.37 -414.027 7.37C-413.707 7.37 -413.397 7.29 -413.097 7.13C-412.777 6.97 -412.507 6.7 -412.287 6.32C-411.987 5.88 -411.727 5.24 -411.507 4.4C-411.287 3.54 -411.097 2.45 -410.937 1.13C-410.757 -0.19 -410.617 -1.76 -410.517 -3.58C-410.417 -5.42 -410.347 -7.56 -410.307 -10H-397.917V11H-402.027V-6.34ZM-387.295 -0.730001L-386.695 2H-386.515L-386.035 -0.820001L-382.885 -10H-378.655L-384.235 4.52C-384.675 5.66 -385.105 6.65 -385.525 7.49C-385.925 8.33 -386.365 9.03 -386.845 9.59C-387.305 10.13 -387.825 10.54 -388.405 10.82C-388.985 11.08 -389.665 11.21 -390.445 11.21C-391.105 11.21 -391.645 11.16 -392.065 11.06C-392.465 10.98 -392.905 10.79 -393.385 10.49L-392.335 7.16C-391.995 7.34 -391.685 7.45 -391.405 7.49C-391.125 7.53 -390.825 7.55 -390.505 7.55C-389.565 7.55 -388.905 6.81 -388.525 5.33L-396.385 -10H-391.555L-387.295 -0.730001ZM-369.473 -10H-365.573V-0.670001L-364.523 -1.09L-360.173 -10H-355.553L-360.443 -0.79L-361.853 0.229999L-360.143 1.49L-354.623 11H-359.573L-364.403 1.88H-365.573V11H-369.473V1.52L-370.553 1.94L-375.383 11H-380.183L-374.693 1.79L-373.073 0.62L-374.633 -0.49L-379.763 -10H-374.993L-370.643 -1.03H-369.473V-10ZM-340.767 -0.64L-340.527 -3.37H-340.677L-342.087 -0.550001L-349.917 11H-353.007V-10H-348.897V1.43L-349.197 4.25H-349.017L-347.547 1.34L-339.717 -10H-336.657V11H-340.767V-0.64ZM-318.896 -5.11C-318.896 -4.59 -318.966 -4.07 -319.106 -3.55C-319.226 -3.03 -319.436 -2.55 -319.736 -2.11C-320.036 -1.69 -320.426 -1.31 -320.906 -0.970001C-321.386 -0.650001 -321.966 -0.410001 -322.646 -0.250001V-0.0700005C-322.046 0.0299994 -321.476 0.199999 -320.936 0.439999C-320.396 0.68 -319.926 1.01 -319.526 1.43C-319.126 1.85 -318.816 2.36 -318.596 2.96C-318.356 3.56 -318.236 4.27 -318.236 5.09C-318.236 6.17 -318.466 7.11 -318.926 7.91C-319.386 8.69 -320.006 9.33 -320.786 9.83C-321.546 10.33 -322.416 10.7 -323.396 10.94C-324.376 11.18 -325.386 11.3 -326.426 11.3C-326.766 11.3 -327.206 11.3 -327.746 11.3C-328.266 11.3 -328.836 11.28 -329.456 11.24C-330.056 11.22 -330.676 11.18 -331.316 11.12C-331.936 11.06 -332.506 10.97 -333.026 10.85V-9.85C-332.646 -9.91 -332.216 -9.97 -331.736 -10.03C-331.236 -10.09 -330.706 -10.14 -330.146 -10.18C-329.586 -10.22 -329.016 -10.25 -328.436 -10.27C-327.836 -10.29 -327.246 -10.3 -326.666 -10.3C-325.686 -10.3 -324.736 -10.22 -323.816 -10.06C-322.876 -9.92 -322.046 -9.66 -321.326 -9.28C-320.586 -8.9 -319.996 -8.37 -319.556 -7.69C-319.116 -7.01 -318.896 -6.15 -318.896 -5.11ZM-326.396 7.91C-325.896 7.91 -325.416 7.85 -324.956 7.73C-324.476 7.61 -324.056 7.43 -323.696 7.19C-323.336 6.93 -323.046 6.61 -322.826 6.23C-322.606 5.85 -322.496 5.4 -322.496 4.88C-322.496 4.22 -322.626 3.7 -322.886 3.32C-323.146 2.94 -323.486 2.65 -323.906 2.45C-324.326 2.23 -324.796 2.09 -325.316 2.03C-325.836 1.97 -326.356 1.94 -326.876 1.94H-329.066V7.73C-328.966 7.77 -328.806 7.8 -328.586 7.82C-328.366 7.84 -328.136 7.86 -327.896 7.88C-327.636 7.88 -327.376 7.89 -327.116 7.91C-326.836 7.91 -326.596 7.91 -326.396 7.91ZM-327.746 -1.18C-327.466 -1.18 -327.146 -1.19 -326.786 -1.21C-326.406 -1.23 -326.096 -1.26 -325.856 -1.3C-325.096 -1.54 -324.446 -1.9 -323.906 -2.38C-323.346 -2.86 -323.066 -3.49 -323.066 -4.27C-323.066 -4.79 -323.166 -5.22 -323.366 -5.56C-323.566 -5.9 -323.836 -6.17 -324.176 -6.37C-324.496 -6.57 -324.866 -6.71 -325.286 -6.79C-325.706 -6.87 -326.146 -6.91 -326.606 -6.91C-327.126 -6.91 -327.606 -6.9 -328.046 -6.88C-328.486 -6.86 -328.826 -6.83 -329.066 -6.79V-1.18H-327.746ZM-304.952 6.35H-311.402L-312.992 11H-317.102L-309.542 -10.15H-306.512L-298.952 11H-303.272L-304.952 6.35ZM-310.352 3.05H-305.852L-307.412 -1.63L-308.042 -4.93H-308.192L-308.822 -1.6L-310.352 3.05ZM-293.027 -1.45H-290.237C-289.977 -4.31 -289.137 -6.52 -287.717 -8.08C-286.297 -9.64 -284.307 -10.42 -281.747 -10.42C-280.227 -10.42 -278.927 -10.16 -277.847 -9.64C-276.767 -9.12 -275.887 -8.38 -275.207 -7.42C-274.507 -6.46 -273.997 -5.31 -273.677 -3.97C-273.337 -2.63 -273.167 -1.14 -273.167 0.499999C-273.167 4 -273.887 6.7 -275.327 8.6C-276.767 10.48 -278.907 11.42 -281.747 11.42C-283.067 11.42 -284.237 11.2 -285.257 10.76C-286.257 10.32 -287.107 9.7 -287.807 8.9C-288.507 8.1 -289.057 7.13 -289.457 5.99C-289.857 4.85 -290.117 3.59 -290.237 2.21H-293.027V11H-297.137V-10H-293.027V-1.45ZM-286.037 0.499999C-286.037 1.56 -285.967 2.54 -285.827 3.44C-285.667 4.32 -285.427 5.08 -285.107 5.72C-284.767 6.36 -284.327 6.86 -283.788 7.22C-283.227 7.58 -282.547 7.76 -281.747 7.76C-280.287 7.76 -279.217 7.19 -278.537 6.05C-277.837 4.91 -277.487 3.06 -277.487 0.499999C-277.487 -0.520001 -277.557 -1.47 -277.697 -2.35C-277.817 -3.23 -278.037 -4 -278.357 -4.66C-278.677 -5.32 -279.117 -5.83 -279.677 -6.19C-280.217 -6.57 -280.907 -6.76 -281.747 -6.76C-283.187 -6.76 -284.267 -6.17 -284.987 -4.99C-285.687 -3.83 -286.037 -2 -286.037 0.499999ZM-270.214 11V-10H-266.104V7.34H-261.154V-10H-257.044V7.34H-252.094V-10H-247.984V7.34H-245.224V14.75H-248.104L-248.554 11H-270.214ZM-230.64 -0.64L-230.4 -3.37H-230.55L-231.96 -0.550001L-239.79 11H-242.88V-10H-238.77V1.43L-239.07 4.25H-238.89L-237.42 1.34L-229.59 -10H-226.53V11H-230.64V-0.64ZM-210.659 -0.64L-210.419 -3.37H-210.569L-211.979 -0.550001L-219.809 11H-222.899V-10H-218.789V1.43L-219.089 4.25H-218.909L-217.439 1.34L-209.609 -10H-206.549V11H-210.659V-0.64ZM-216.509 -15.22C-216.429 -14.58 -216.199 -14.12 -215.819 -13.84C-215.419 -13.56 -214.909 -13.42 -214.289 -13.42C-212.949 -13.42 -212.209 -14.01 -212.069 -15.19L-208.739 -14.68C-208.959 -13.42 -209.539 -12.5 -210.479 -11.92C-211.399 -11.34 -212.679 -11.05 -214.319 -11.05C-215.139 -11.05 -215.889 -11.11 -216.569 -11.23C-217.249 -11.35 -217.849 -11.54 -218.369 -11.8C-218.869 -12.08 -219.289 -12.45 -219.629 -12.91C-219.949 -13.37 -220.149 -13.94 -220.229 -14.62L-216.509 -15.22ZM-195.331 -10H-182.401V-6.34H-191.221V-1.96C-190.881 -2.02 -190.471 -2.08 -189.991 -2.14C-189.491 -2.2 -189.001 -2.23 -188.521 -2.23C-187.401 -2.23 -186.371 -2.12 -185.431 -1.9C-184.491 -1.68 -183.691 -1.31 -183.031 -0.79C-182.351 -0.290001 -181.821 0.379999 -181.441 1.22C-181.061 2.04 -180.871 3.05 -180.871 4.25C-180.871 5.43 -181.071 6.46 -181.471 7.34C-181.851 8.22 -182.411 8.95 -183.151 9.53C-183.871 10.11 -184.751 10.55 -185.791 10.85C-186.811 11.15 -187.961 11.3 -189.241 11.3C-189.581 11.3 -190.011 11.29 -190.531 11.27C-191.031 11.25 -191.571 11.22 -192.151 11.18C-192.711 11.14 -193.271 11.09 -193.831 11.03C-194.391 10.97 -194.891 10.89 -195.331 10.79V-10ZM-188.941 7.91C-188.421 7.91 -187.941 7.85 -187.501 7.73C-187.041 7.59 -186.641 7.39 -186.301 7.13C-185.961 6.85 -185.691 6.5 -185.491 6.08C-185.291 5.66 -185.191 5.15 -185.191 4.55C-185.191 3.83 -185.301 3.25 -185.521 2.81C-185.741 2.37 -186.041 2.03 -186.421 1.79C-186.801 1.53 -187.241 1.36 -187.741 1.28C-188.221 1.2 -188.741 1.16 -189.301 1.16C-189.581 1.16 -189.931 1.19 -190.351 1.25C-190.771 1.29 -191.061 1.33 -191.221 1.37V7.76C-191.001 7.82 -190.671 7.86 -190.231 7.88C-189.771 7.9 -189.341 7.91 -188.941 7.91ZM-178.881 0.499999C-178.881 -3 -178.111 -5.69 -176.571 -7.57C-175.031 -9.47 -172.831 -10.42 -169.971 -10.42C-168.471 -10.42 -167.161 -10.16 -166.041 -9.64C-164.921 -9.12 -163.991 -8.38 -163.251 -7.42C-162.511 -6.46 -161.961 -5.31 -161.601 -3.97C-161.241 -2.63 -161.061 -1.14 -161.061 0.499999C-161.061 4 -161.841 6.7 -163.401 8.6C-164.941 10.48 -167.131 11.42 -169.971 11.42C-171.491 11.42 -172.811 11.16 -173.931 10.64C-175.051 10.12 -175.981 9.38 -176.721 8.42C-177.441 7.46 -177.981 6.31 -178.341 4.97C-178.701 3.63 -178.881 2.14 -178.881 0.499999ZM-174.561 0.499999C-174.561 1.56 -174.471 2.54 -174.291 3.44C-174.111 4.32 -173.841 5.08 -173.481 5.72C-173.101 6.36 -172.621 6.86 -172.041 7.22C-171.461 7.58 -170.771 7.76 -169.971 7.76C-168.511 7.76 -167.381 7.19 -166.581 6.05C-165.781 4.91 -165.381 3.06 -165.381 0.499999C-165.381 -0.520001 -165.471 -1.47 -165.651 -2.35C-165.811 -3.23 -166.071 -4 -166.431 -4.66C-166.791 -5.32 -167.261 -5.83 -167.841 -6.19C-168.421 -6.57 -169.131 -6.76 -169.971 -6.76C-171.431 -6.76 -172.561 -6.17 -173.361 -4.99C-174.161 -3.83 -174.561 -2 -174.561 0.499999ZM-147.642 -6.34H-152.112C-152.192 -4.44 -152.282 -2.71 -152.382 -1.15C-152.482 0.409999 -152.622 1.82 -152.802 3.08C-152.962 4.32 -153.182 5.42 -153.462 6.38C-153.742 7.34 -154.102 8.17 -154.542 8.87C-154.822 9.33 -155.142 9.71 -155.502 10.01C-155.842 10.31 -156.202 10.55 -156.582 10.73C-156.962 10.91 -157.342 11.03 -157.722 11.09C-158.082 11.17 -158.422 11.21 -158.742 11.21C-159.202 11.21 -159.592 11.17 -159.912 11.09C-160.212 11.03 -160.512 10.93 -160.812 10.79L-160.362 7.25C-160.242 7.29 -160.122 7.32 -160.002 7.34C-159.882 7.36 -159.762 7.37 -159.642 7.37C-159.322 7.37 -159.012 7.29 -158.712 7.13C-158.392 6.97 -158.122 6.7 -157.902 6.32C-157.602 5.88 -157.342 5.24 -157.122 4.4C-156.902 3.54 -156.712 2.45 -156.552 1.13C-156.372 -0.19 -156.232 -1.76 -156.132 -3.58C-156.032 -5.42 -155.962 -7.56 -155.922 -10H-143.532V11H-147.642V-6.34ZM-139.93 -10H-135.82V-2.47C-135.72 -2.49 -135.56 -2.51 -135.34 -2.53C-135.1 -2.57 -134.85 -2.6 -134.59 -2.62C-134.31 -2.64 -134.03 -2.66 -133.75 -2.68C-133.47 -2.7 -133.21 -2.71 -132.97 -2.71C-131.99 -2.71 -131.04 -2.61 -130.12 -2.41C-129.2 -2.21 -128.39 -1.85 -127.69 -1.33C-126.97 -0.83 -126.4 -0.14 -125.98 0.74C-125.56 1.6 -125.35 2.7 -125.35 4.04C-125.35 6.44 -126.1 8.25 -127.6 9.47C-129.08 10.69 -131.21 11.3 -133.99 11.3C-134.27 11.3 -134.65 11.29 -135.13 11.27C-135.59 11.27 -136.1 11.25 -136.66 11.21C-137.22 11.17 -137.79 11.12 -138.37 11.06C-138.93 11 -139.45 10.91 -139.93 10.79V-10ZM-133.78 7.64C-133.22 7.64 -132.69 7.59 -132.19 7.49C-131.69 7.37 -131.25 7.18 -130.87 6.92C-130.49 6.64 -130.2 6.28 -130 5.84C-129.78 5.4 -129.67 4.86 -129.67 4.22C-129.67 3.54 -129.79 2.99 -130.03 2.57C-130.25 2.13 -130.55 1.79 -130.93 1.55C-131.29 1.31 -131.72 1.15 -132.22 1.07C-132.72 0.99 -133.24 0.95 -133.78 0.95C-133.92 0.95 -134.09 0.96 -134.29 0.979999C-134.49 1 -134.69 1.02 -134.89 1.04C-135.09 1.06 -135.28 1.09 -135.46 1.13C-135.62 1.15 -135.74 1.17 -135.82 1.19V7.46C-135.6 7.52 -135.31 7.57 -134.95 7.61C-134.57 7.63 -134.18 7.64 -133.78 7.64ZM-122.85 11V-10H-118.74V7.34H-113.79V-10H-109.68V7.34H-104.73V-10H-100.62V11H-122.85ZM-97.0105 -10H-84.5605V-6.34H-92.9005V-1.45H-85.3105V2.21H-92.9005V7.34H-84.4105V11H-97.0105V-10ZM-69.1267 -6.34H-77.2267V11H-81.3367V-10H-69.1267V-6.34ZM-68.901 0.499999C-68.901 -3 -68.131 -5.69 -66.591 -7.57C-65.051 -9.47 -62.851 -10.42 -59.991 -10.42C-58.491 -10.42 -57.181 -10.16 -56.061 -9.64C-54.941 -9.12 -54.011 -8.38 -53.271 -7.42C-52.531 -6.46 -51.981 -5.31 -51.621 -3.97C-51.261 -2.63 -51.081 -1.14 -51.081 0.499999C-51.081 4 -51.861 6.7 -53.421 8.6C-54.961 10.48 -57.151 11.42 -59.991 11.42C-61.511 11.42 -62.831 11.16 -63.951 10.64C-65.071 10.12 -66.001 9.38 -66.741 8.42C-67.461 7.46 -68.001 6.31 -68.361 4.97C-68.721 3.63 -68.901 2.14 -68.901 0.499999ZM-64.581 0.499999C-64.581 1.56 -64.491 2.54 -64.311 3.44C-64.131 4.32 -63.861 5.08 -63.501 5.72C-63.121 6.36 -62.641 6.86 -62.061 7.22C-61.481 7.58 -60.791 7.76 -59.991 7.76C-58.531 7.76 -57.401 7.19 -56.601 6.05C-55.801 4.91 -55.401 3.06 -55.401 0.499999C-55.401 -0.520001 -55.491 -1.47 -55.671 -2.35C-55.831 -3.23 -56.091 -4 -56.451 -4.66C-56.811 -5.32 -57.281 -5.83 -57.861 -6.19C-58.441 -6.57 -59.151 -6.76 -59.991 -6.76C-61.451 -6.76 -62.581 -6.17 -63.381 -4.99C-64.181 -3.83 -64.581 -2 -64.581 0.499999ZM-46.9434 -10H-42.9234V-0.130001L-43.7034 4.76H-46.1634L-46.9434 -0.130001V-10ZM-47.3634 9.02C-47.3634 8.32 -47.1434 7.77 -46.7034 7.37C-46.2634 6.95 -45.6834 6.74 -44.9634 6.74C-44.2034 6.74 -43.6034 6.95 -43.1634 7.37C-42.7234 7.77 -42.5034 8.32 -42.5034 9.02C-42.5034 9.72 -42.7234 10.28 -43.1634 10.7C-43.6034 11.12 -44.2034 11.33 -44.9634 11.33C-45.6834 11.33 -46.2634 11.12 -46.7034 10.7C-47.1434 10.28 -47.3634 9.72 -47.3634 9.02Z" fill="black"/>
<rect x="-893" y="-665" width="1280" height="3315" fill="#F2F2F2" fill-opacity="0.8"/>
<g filter="url(#filter1_d_0_1)">
<rect x="-611" y="-269" width="715" height="561" rx="30" fill="white"/>
</g>
<rect x="-386" y="-18" width="420" height="50" rx="4" fill="#F2F2F2"/>
<g opacity="0.3" clip-path="url(#clip1_0_1)">
<path d="M5.5 10C5.8 10 6 9.8 6 9.5C6 9.2 5.8 9 5.5 9C5.2 9 5 9.2 5 9.5C5 9.8 5.2 10 5.5 10Z" fill="black"/>
<path d="M14 2H12V0H11V2H4V0H3V2H1C0.4 2 0 2.4 0 3V6V7V14C0 14.5 0.4 15 1 15H14C14.5 15 15 14.5 15 14V7V6V3C15 2.4 14.5 2 14 2ZM14 14H1V7H14V14ZM1 6V3H3V5H4V3H11V5H12V3H14V6H1Z" fill="black"/>
<path d="M7.5 10C7.8 10 8 9.8 8 9.5C8 9.2 7.8 9 7.5 9C7.2 9 7 9.2 7 9.5C7 9.8 7.2 10 7.5 10Z" fill="black"/>
<path d="M9.5 10C9.8 10 10 9.8 10 9.5C10 9.2 9.8 9 9.5 9C9.2 9 9 9.2 9 9.5C9 9.8 9.2 10 9.5 10Z" fill="black"/>
<path d="M5.5 11C5.2 11 5 11.2 5 11.5C5 11.8 5.2 12 5.5 12C5.8 12 6 11.8 6 11.5C6 11.2 5.8 11 5.5 11Z" fill="black"/>
<path d="M3.5 10C3.8 10 4 9.8 4 9.5C4 9.2 3.8 9 3.5 9C3.2 9 3 9.2 3 9.5C3 9.8 3.2 10 3.5 10Z" fill="black"/>
<path d="M3.5 11C3.2 11 3 11.2 3 11.5C3 11.8 3.2 12 3.5 12C3.8 12 4 11.8 4 11.5C4 11.2 3.8 11 3.5 11Z" fill="black"/>
<path d="M7.5 11C7.2 11 7 11.2 7 11.5C7 11.8 7.2 12 7.5 12C7.8 12 8 11.8 8 11.5C8 11.2 7.8 11 7.5 11Z" fill="black"/>
<path d="M9.5 11C9.2 11 9 11.2 9 11.5C9 11.8 9.2 12 9.5 12C9.8 12 10 11.8 10 11.5C10 11.2 9.8 11 9.5 11Z" fill="black"/>
<path d="M11.5 10C11.8 10 12 9.8 12 9.5C12 9.2 11.8 9 11.5 9C11.2 9 11 9.2 11 9.5C11 9.8 11.2 10 11.5 10Z" fill="black"/>
<path d="M11.5 11C11.2 11 11 11.2 11 11.5C11 11.8 11.2 12 11.5 12C11.8 12 12 11.8 12 11.5C12 11.2 11.8 11 11.5 11Z" fill="black"/>
</g>
</g>
<defs>
<filter id="filter0_d_0_1" x="-868" y="-680" width="1230" height="3345" filterUnits="userSpaceOnUse" color-interpolation-filters="sRGB">
<feFlood flood-opacity="0" result="BackgroundImageFix"/>
<feColorMatrix in="SourceAlpha" type="matrix" values="0 0 0 0 0 0 0 0 0 0 0 0 0 0 0 0 0 0 127 0" result="hardAlpha"/>
<feOffset/>
<feGaussianBlur stdDeviation="7.5"/>
<feColorMatrix type="matrix" values="0 0 0 0 0 0 0 0 0 0 0 0 0 0 0 0 0 0 0.2 0"/>
<feBlend mode="normal" in2="BackgroundImageFix" result="effect1_dropShadow_0_1"/>
<feBlend mode="normal" in="SourceGraphic" in2="effect1_dropShadow_0_1" result="shape"/>
</filter>
<filter id="filter1_d_0_1" x="-661" y="-294" width="815" height="661" filterUnits="userSpaceOnUse" color-interpolation-filters="sRGB">
<feFlood flood-opacity="0" result="BackgroundImageFix"/>
<feColorMatrix in="SourceAlpha" type="matrix" values="0 0 0 0 0 0 0 0 0 0 0 0 0 0 0 0 0 0 127 0" result="hardAlpha"/>
<feOffset dy="25"/>
<feGaussianBlur stdDeviation="25"/>
<feColorMatrix type="matrix" values="0 0 0 0 0 0 0 0 0 0 0 0 0 0 0 0 0 0 0.15 0"/>
<feBlend mode="normal" in2="BackgroundImageFix" result="effect1_dropShadow_0_1"/>
<feBlend mode="normal" in="SourceGraphic" in2="effect1_dropShadow_0_1" result="shape"/>
</filter>
<clipPath id="clip0_0_1">
<rect width="1280" height="3315" fill="white" transform="translate(-893 -665)"/>
</clipPath>
<clipPath id="clip1_0_1">
<rect width="15" height="15" fill="white"/>
</clipPath>
</defs>
</svg>
